<svg xmlns="http://www.w3.org/2000/svg" version="1.1" xmlns:xlink="http://www.w3.org/1999/xlink" xmlns:svgjs="http://svgjs.dev/svgjs" width="1500" height="1500" viewBox="0 0 1500 1500"><rect width="1500" height="1500" fill="#ffffff"></rect><g transform="matrix(0.6666666666666666,0,0,0.6666666666666666,249.5774983153222,632.3843145220352)"><svg viewBox="0 0 398 93" data-background-color="#ffffff" preserveAspectRatio="xMidYMid meet" height="350" width="1500" xmlns="http://www.w3.org/2000/svg" xmlns:xlink="http://www.w3.org/1999/xlink"><g id="tight-bounds" transform="matrix(1,0,0,1,0.1681556705017897,0.3782517833602981)"><svg viewBox="0 0 395.52 92.22070165202092" height="92.22070165202092" width="395.52"><g><svg viewBox="0 0 546.1747913914533 127.34785216111948" height="92.22070165202092" width="395.52"><g><rect width="5.180439928026951" height="110.57700621804874" x="409.08136106813333" y="8.38542297153537" fill="#000000" opacity="1" stroke-width="0" stroke="transparent" fill-opacity="1" class="rect-yte-0" data-fill-palette-color="primary" rx="1%" id="yte-0" data-palette-color="#000000"></rect></g><g transform="matrix(1,0,0,1,0,17.600173489706094)"><svg viewBox="0 0 395.52 92.14750518170729" height="92.14750518170729" width="395.52"><g id="textblocktransform"><svg viewBox="0 0 395.52 92.14750518170729" height="92.14750518170729" width="395.52" id="textblock"><g><svg viewBox="0 0 395.52 57.44489515297353" height="57.44489515297353" width="395.52"><g transform="matrix(1,0,0,1,0,0)"><svg width="395.52" viewBox="-0.7 -41.25 290.88 42.25" height="57.44489515297353" data-palette-color="#000000"><path d="M10.55-14.65L6.1-2.2 10.15-1.7Q10.35-0.95 10.15 0.15L10.15 0.15Q7 0 4.85 0L4.85 0Q3.65 0-0.55 0.1L-0.55 0.1Q-0.85-0.8-0.55-1.7L-0.55-1.7 2.75-2.3Q3.55-3.5 4.75-6.75L4.75-6.75 17.65-41.25 19.4-41.25 33.9-2.2 37.95-1.7Q38.15-0.95 37.95 0.15L37.95 0.15Q34.8 0 30.9 0L30.9 0Q28 0 23.8 0.1L23.8 0.1Q23.5-0.8 23.8-1.7L23.8-1.7 27.95-2.3 23.55-14.65 10.55-14.65ZM17.2-33.7L17.2-33.7 17.15-33.7Q16.55-31.35 15.2-27.55L15.2-27.55 11.45-17.15 22.65-17.15 19-27.55Q17.95-30.6 17.2-33.7ZM70.35 0.9L70.35 0.9 69.05-3.2Q63.25 1 57.85 1L57.85 1Q52.95 1 49.3-0.78 45.65-2.55 43.25-5.48 40.85-8.4 39.67-12.13 38.5-15.85 38.5-19.75L38.5-19.75Q38.5-23.7 39.87-27.48 41.25-31.25 43.92-34.2 46.6-37.15 50.45-38.98 54.3-40.8 59.25-40.8L59.25-40.8Q66.15-40.8 71.95-37.8L71.95-37.8 71.95-28.2Q71.05-28.05 70.35-28.05L70.35-28.05Q69.6-28.05 69.1-28.2L69.1-28.2 67.5-36.55Q64.3-38.55 58.65-38.55L58.65-38.55Q55.5-38.55 52.95-37.13 50.4-35.7 48.55-33.27 46.7-30.85 45.7-27.58 44.7-24.3 44.7-20.6L44.7-20.6Q44.7-16.65 45.62-13.3 46.55-9.95 48.25-7.5 49.95-5.05 52.37-3.68 54.8-2.3 57.8-2.3L57.8-2.3Q62.65-2.3 67.35-4.95L67.35-4.95 67.35-15.6 63.3-16.1Q63.2-16.35 63.2-16.9L63.2-16.9Q63.2-17.15 63.2-17.4 63.2-17.65 63.3-17.95L63.3-17.95Q64.7-17.85 66.37-17.8 68.05-17.75 70.15-17.75L70.15-17.75Q73.8-17.75 77.05-17.9L77.05-17.9Q77.2-17.45 77.2-17L77.2-17Q77.2-16.55 77.05-16.1L77.05-16.1 72.9-15.5Q72.8-14.55 72.75-13.1 72.7-11.65 72.7-9.65L72.7-9.65 72.7-4.6 72.2 0.9Q72 1 71.8 1 71.6 1 71.35 1L71.35 1Q71.1 1 70.85 1 70.6 1 70.35 0.9ZM90.2-31.65L90.2-31.65 90.2-2.2 94.25-1.7Q94.45-0.95 94.25 0.15L94.25 0.15Q91.1 0 87.4 0L87.4 0Q84.7 0 80.5 0.1L80.5 0.1Q80.2-0.8 80.5-1.7L80.5-1.7 84.65-2.3Q84.85-4.2 84.85-8.15L84.85-8.15 84.85-37.6 80.8-38.1Q80.6-38.85 80.8-39.95L80.8-39.95Q83.55-39.75 87.65-39.75L87.65-39.75Q91.3-39.75 94.55-39.9L94.55-39.9Q94.85-39 94.55-38.1L94.55-38.1 90.4-37.5Q90.2-35.6 90.2-31.65ZM144.04-13.4L144.04-13.4 144.04-31.5Q144.04-35.45 143.84-37.35L143.84-37.35 139.19-37.95Q138.89-38.85 139.19-39.75L139.19-39.75Q142.34-39.6 145.29-39.6L145.29-39.6Q148.54-39.6 151.34-39.8L151.34-39.8Q151.54-38.7 151.34-37.95L151.34-37.95 146.79-37.45 146.79 0 144.14 0 122.09-29.85Q120.54-31.9 118.44-35.2L118.44-35.2Q118.69-32.9 118.69-29.65L118.69-29.65 118.69-8.15Q118.69-4.2 118.89-2.3L118.89-2.3 123.54-1.7Q123.84-0.8 123.54 0.1L123.54 0.1Q119.24 0 117.44 0L117.44 0Q114.49 0 111.39 0.15L111.39 0.15Q111.19-0.95 111.39-1.7L111.39-1.7 115.94-2.2 115.94-31.65Q115.94-35.6 115.74-37.5L115.74-37.5 111.59-38.1Q111.29-38.95 111.59-39.8L111.59-39.8 121.39-39.8 141.44-12.5Q141.84-11.95 142.31-11.2 142.79-10.45 143.37-9.4 143.94-8.35 144.29-7.8L144.29-7.8Q144.04-10.8 144.04-13.4ZM158.89-6.65L158.89-6.65Q158.89-4.05 159.84-2.98 160.79-1.9 162.84-1.9L162.84-1.9Q164.34-1.9 166.16-2.83 167.99-3.75 169.54-5.5L169.54-5.5 169.54-13.3Q164.39-13 161.64-11.48 158.89-9.95 158.89-6.65ZM169.54-15.1L169.54-15.1 169.54-17.65Q169.54-21.9 168.56-23.83 167.59-25.75 165.34-25.75L165.34-25.75Q163.04-25.75 161.64-24.28 160.24-22.8 159.74-19.25L159.74-19.25Q158.14-18.9 157.39-18.9L157.39-18.9Q155.44-18.9 155.09-20.3L155.09-20.3Q155.09-23.7 158.04-25.7 160.99-27.7 165.39-27.7L165.39-27.7Q170.24-27.7 172.26-25.73 174.29-23.75 174.29-18.65L174.29-18.65 174.29-4.55Q174.29-3.3 174.44-2.4L174.44-2.4 178.39-1.9Q178.59-1.15 178.39 0L178.39 0Q174.84 0.15 170.84 0.7L170.84 0.7Q170.44 0.3 170.34-0.3L170.34-0.3 170.09-3.75Q165.94 1 160.84 1L160.84 1Q157.69 1 155.91-0.8 154.14-2.6 154.14-5.65L154.14-5.65Q154.14-10.25 158.31-12.6 162.49-14.95 169.54-15.1ZM189.23-18.6L189.23-18.6 189.23-2.55 193.28-1.8Q193.33-1.55 193.36-1.35 193.38-1.15 193.38-0.9L193.38-0.9Q193.38-0.65 193.36-0.38 193.33-0.1 193.28 0.2L193.28 0.2Q190.13 0.05 186.83 0.05L186.83 0.05Q185.68 0.05 184.06 0.08 182.43 0.1 180.33 0.15L180.33 0.15Q180.18-0.3 180.18-0.8L180.18-0.8Q180.18-1.25 180.33-1.8L180.33-1.8 184.28-2.35Q184.38-3.75 184.43-5.33 184.48-6.9 184.48-8.7L184.48-8.7 184.48-19.35Q184.48-22.65 184.33-24.25L184.33-24.25 180.38-24.75Q180.28-25 180.28-25.6L180.28-25.6Q180.28-25.85 180.28-26.1 180.28-26.35 180.38-26.65L180.38-26.65Q183.78-26.85 188.98-27.7L188.98-27.7Q189.43-27.2 189.48-26.7L189.48-26.7Q189.23-25.3 189.23-18.6ZM181.93-36.45L181.93-36.45Q181.83-36.7 181.83-36.98 181.83-37.25 181.83-37.5L181.83-37.5Q181.83-38.85 182.96-39.68 184.08-40.5 185.73-40.5L185.73-40.5Q187.28-40.5 188.26-39.58 189.23-38.65 189.23-37.05L189.23-37.05Q189.23-35.75 188.11-34.95 186.98-34.15 185.23-34.15L185.23-34.15Q184.03-34.15 183.11-34.75 182.18-35.35 181.93-36.45ZM204.98-26.7L204.98-26.7 204.88-21.55Q206.13-23.85 208.36-25.78 210.58-27.7 212.58-27.7L212.58-27.7Q214.13-27.7 215.33-27.35L215.33-27.35Q215.73-26.7 215.73-25.65L215.73-25.65Q215.73-24 215.03-22.35L215.03-22.35Q213.23-22.85 211.58-22.85L211.58-22.85Q207.48-22.85 204.83-18.85L204.83-18.85 204.73-10.1 204.73-2.55 210.28-1.8Q210.48-1 210.28 0.2L210.28 0.2Q207.13 0.05 203.08 0.05L203.08 0.05Q200.03 0.05 195.83 0.15L195.83 0.15Q195.53-0.8 195.83-1.8L195.83-1.8 199.78-2.35Q199.98-5.1 199.98-8.7L199.98-8.7 199.98-22.4Q199.98-23.4 199.83-24.25L199.83-24.25 195.88-24.75Q195.68-25.5 195.88-26.65L195.88-26.65Q199.33-26.9 204.48-27.7L204.48-27.7Q204.93-27.2 204.98-26.7ZM218.03-13.3L218.03-13.3Q218.03-16.3 218.91-18.93 219.78-21.55 221.43-23.5 223.08-25.45 225.41-26.58 227.73-27.7 230.63-27.7L230.63-27.7Q233.48-27.7 235.83-26.58 238.18-25.45 239.85-23.5 241.53-21.55 242.43-18.93 243.33-16.3 243.33-13.3L243.33-13.3Q243.33-10.2 242.41-7.6 241.48-5 239.81-3.08 238.13-1.15 235.78-0.08 233.43 1 230.63 1L230.63 1Q227.68 1 225.35-0.05 223.03-1.1 221.41-3 219.78-4.9 218.91-7.53 218.03-10.15 218.03-13.3ZM225.33-22.5L225.33-22.5Q223.18-19.45 223.18-13.3L223.18-13.3Q223.18-10.25 223.75-7.95 224.33-5.65 225.33-4.13 226.33-2.6 227.68-1.85 229.03-1.1 230.63-1.1L230.63-1.1Q232.18-1.1 233.58-1.85 234.98-2.6 235.98-4.13 236.98-5.65 237.58-7.95 238.18-10.25 238.18-13.3L238.18-13.3Q238.18-16.35 237.58-18.68 236.98-21 235.95-22.53 234.93-24.05 233.56-24.83 232.18-25.6 230.63-25.6L230.63-25.6Q227.53-25.6 225.33-22.5ZM254.08-31.7L254.08-23.55Q258.23-27.7 263.13-27.7L263.13-27.7Q267.98-27.7 270.7-24.05 273.43-20.4 273.43-14.2L273.43-14.2Q273.43-7.15 269.63-3.08 265.83 1 260.18 1L260.18 1Q255.28 1 252.48-2.5L252.48-2.5 251.43 0.9Q250.48 1.05 249.83 0.9L249.83 0.9 249.33-4.6 249.33-37.35 245.23-37.85Q245.03-38.6 245.23-39.75L245.23-39.75Q248.68-40 253.83-40.8L253.83-40.8Q254.28-40.3 254.33-39.8L254.33-39.8Q254.08-38.5 254.08-31.7L254.08-31.7ZM261.28-1.75L261.28-1.75Q264.38-1.75 266.4-4.63 268.43-7.5 268.43-12.75L268.43-12.75Q268.43-13.8 268.38-14.35L268.38-14.35Q268.38-19.3 266.4-22 264.43-24.7 261.43-24.7L261.43-24.7Q259.68-24.7 257.63-23.58 255.58-22.45 254.08-20.5L254.08-20.5 254.08-5.2Q255.78-3.25 257.33-2.5 258.88-1.75 261.28-1.75ZM286.02-18.6L286.02-18.6 286.02-2.55 290.07-1.8Q290.13-1.55 290.15-1.35 290.18-1.15 290.18-0.9L290.18-0.9Q290.18-0.65 290.15-0.38 290.13-0.1 290.07 0.2L290.07 0.2Q286.93 0.05 283.63 0.05L283.63 0.05Q282.48 0.05 280.85 0.08 279.23 0.1 277.13 0.15L277.13 0.15Q276.98-0.3 276.98-0.8L276.98-0.8Q276.98-1.25 277.13-1.8L277.13-1.8 281.07-2.35Q281.18-3.75 281.23-5.33 281.27-6.9 281.27-8.7L281.27-8.7 281.27-19.35Q281.27-22.65 281.13-24.25L281.13-24.25 277.18-24.75Q277.07-25 277.07-25.6L277.07-25.6Q277.07-25.85 277.07-26.1 277.07-26.35 277.18-26.65L277.18-26.65Q280.57-26.85 285.77-27.7L285.77-27.7Q286.23-27.2 286.27-26.7L286.27-26.7Q286.02-25.3 286.02-18.6ZM278.73-36.45L278.73-36.45Q278.63-36.7 278.63-36.98 278.63-37.25 278.63-37.5L278.63-37.5Q278.63-38.85 279.75-39.68 280.88-40.5 282.52-40.5L282.52-40.5Q284.07-40.5 285.05-39.58 286.02-38.65 286.02-37.05L286.02-37.05Q286.02-35.75 284.9-34.95 283.77-34.15 282.02-34.15L282.02-34.15Q280.82-34.15 279.9-34.75 278.98-35.35 278.73-36.45Z" opacity="1" transform="matrix(1,0,0,1,0,0)" fill="#000000" class="wordmark-text-0" data-fill-palette-color="primary" id="text-0"></path></svg></g></svg></g><g transform="matrix(1,0,0,1,163.310208,71.00625622110691)"><svg viewBox="0 0 232.209792 21.141248960600375" height="21.141248960600375" width="232.209792"><g transform="matrix(1,0,0,1,0,0)"><svg width="232.209792" viewBox="3 -35.01 494.43 45.019999999999996" height="21.141248960600375" data-palette-color="#89939e"><path d="M19.7-6.86L19.7-6.86Q19.7-5.35 19.13-4 18.55-2.66 17.55-1.66 16.55-0.66 15.21-0.09 13.87 0.49 12.35 0.49L12.35 0.49 10.35 0.49Q8.84 0.49 7.5-0.09 6.15-0.66 5.15-1.66 4.15-2.66 3.58-4 3-5.35 3-6.86L3-6.86 3-18.14Q3-19.65 3.58-21 4.15-22.34 5.15-23.34 6.15-24.34 7.5-24.91 8.84-25.49 10.35-25.49L10.35-25.49 12.35-25.49Q13.87-25.49 15.21-24.91 16.55-24.34 17.55-23.34 18.55-22.34 19.13-21 19.7-19.65 19.7-18.14L19.7-18.14 19.7-6.86ZM16.7-6.69L16.7-18.31Q16.7-19.21 16.36-20.01 16.02-20.8 15.43-21.39 14.84-21.97 14.05-22.31 13.26-22.66 12.35-22.66L12.35-22.66 10.35-22.66Q9.45-22.66 8.65-22.31 7.86-21.97 7.28-21.39 6.69-20.8 6.35-20.01 6.01-19.21 6.01-18.31L6.01-18.31 6.01-6.69Q6.01-5.79 6.35-4.99 6.69-4.2 7.28-3.61 7.86-3.03 8.65-2.69 9.45-2.34 10.35-2.34L10.35-2.34 12.35-2.34Q13.26-2.34 14.05-2.69 14.84-3.03 15.43-3.61 16.02-4.2 16.36-4.99 16.7-5.79 16.7-6.69L16.7-6.69ZM42.4-6.86L42.4-6.86Q42.4-5.35 41.83-4 41.26-2.66 40.26-1.66 39.26-0.66 37.91-0.09 36.57 0.49 35.06 0.49L35.06 0.49 34.3 0.49Q32.61 0.49 31.17-0.2 29.73-0.88 28.71-2.1L28.71-2.1 28.71 10.01 25.71 10.01 25.71-25 26.71-25 28.34-22.46Q29.37-23.85 30.92-24.67 32.47-25.49 34.3-25.49L34.3-25.49 35.06-25.49Q36.57-25.49 37.91-24.91 39.26-24.34 40.26-23.34 41.26-22.34 41.83-21 42.4-19.65 42.4-18.14L42.4-18.14 42.4-6.86ZM39.4-6.69L39.4-18.31Q39.4-19.21 39.06-20.01 38.72-20.8 38.13-21.39 37.55-21.97 36.75-22.31 35.96-22.66 35.06-22.66L35.06-22.66 33.05-22.66Q32.15-22.66 31.36-22.31 30.56-21.97 29.98-21.39 29.39-20.8 29.05-20.01 28.71-19.21 28.71-18.31L28.71-18.31 28.71-6.69Q28.71-5.79 29.05-4.99 29.39-4.2 29.98-3.61 30.56-3.03 31.36-2.69 32.15-2.34 33.05-2.34L33.05-2.34 35.06-2.34Q35.96-2.34 36.75-2.69 37.55-3.03 38.13-3.61 38.72-4.2 39.06-4.99 39.4-5.79 39.4-6.69L39.4-6.69ZM65.11-6.86L65.11-6.86Q65.11-5.35 64.53-4 63.96-2.66 62.96-1.66 61.96-0.66 60.62-0.09 59.27 0.49 57.76 0.49L57.76 0.49 55.76 0.49Q54.24 0.49 52.9-0.09 51.56-0.66 50.56-1.66 49.56-2.66 48.98-4 48.41-5.35 48.41-6.86L48.41-6.86 48.41-18.14Q48.41-19.65 48.98-21 49.56-22.34 50.56-23.34 51.56-24.34 52.9-24.91 54.24-25.49 55.76-25.49L55.76-25.49 57.76-25.49Q59.27-25.49 60.62-24.91 61.96-24.34 62.96-23.34 63.96-22.34 64.53-21 65.11-19.65 65.11-18.14L65.11-18.14 65.11-12.26 51.41-12.26 51.41-6.69Q51.41-5.79 51.75-4.99 52.09-4.2 52.68-3.61 53.27-3.03 54.06-2.69 54.85-2.34 55.76-2.34L55.76-2.34 57.76-2.34Q58.66-2.34 59.46-2.69 60.25-3.03 60.83-3.61 61.42-4.2 61.76-4.99 62.1-5.79 62.1-6.69L62.1-6.69 62.1-8.35 65.11-7.86 65.11-6.86ZM62.1-14.6L62.1-18.31Q62.1-19.21 61.76-20.01 61.42-20.8 60.83-21.39 60.25-21.97 59.46-22.31 58.66-22.66 57.76-22.66L57.76-22.66 55.76-22.66Q54.85-22.66 54.06-22.31 53.27-21.97 52.68-21.39 52.09-20.8 51.75-20.01 51.41-19.21 51.41-18.31L51.41-18.31 51.41-14.6 62.1-14.6ZM87.81 0L84.81 0 84.81-18.31Q84.81-19.21 84.47-20.01 84.12-20.8 83.54-21.39 82.95-21.97 82.16-22.31 81.36-22.66 80.46-22.66L80.46-22.66 78.46-22.66Q77.56-22.66 76.76-22.31 75.97-21.97 75.38-21.39 74.8-20.8 74.46-20.01 74.11-19.21 74.11-18.31L74.11-18.31 74.11 0 71.11 0 71.11-25 72.11-25 73.75-22.46Q74.77-23.85 76.32-24.67 77.87-25.49 79.7-25.49L79.7-25.49 80.46-25.49Q81.97-25.49 83.32-24.91 84.66-24.34 85.66-23.34 86.66-22.34 87.24-21 87.81-19.65 87.81-18.14L87.81-18.14 87.81 0ZM122.5-6.35L122.5-6.35Q122.5-4.83 121.89-3.58 121.28-2.32 120.23-1.42 119.18-0.51 117.8-0.01 116.42 0.49 114.9 0.49L114.9 0.49 112.9 0.49Q111.39 0.49 110.01-0.09 108.63-0.66 107.59-1.66 106.55-2.66 105.93-4 105.31-5.35 105.31-6.86L105.31-6.86 105.31-7.86 108.31-8.35 108.31-6.69Q108.31-5.79 108.69-4.99 109.07-4.2 109.7-3.61 110.34-3.03 111.17-2.69 112-2.34 112.9-2.34L112.9-2.34 114.9-2.34Q115.81-2.34 116.64-2.61 117.47-2.88 118.11-3.38 118.76-3.88 119.14-4.59 119.52-5.3 119.52-6.2L119.52-6.2Q119.52-7.54 118.93-8.4 118.35-9.25 117.38-9.83 116.42-10.4 115.19-10.78 113.95-11.16 112.66-11.54 111.36-11.91 110.13-12.4 108.9-12.89 107.93-13.68 106.97-14.48 106.38-15.67 105.8-16.87 105.8-18.65L105.8-18.65Q105.8-20.17 106.38-21.42 106.97-22.68 107.97-23.58 108.97-24.49 110.3-24.99 111.63-25.49 113.15-25.49L113.15-25.49 114.9-25.49Q116.42-25.49 117.76-24.91 119.1-24.34 120.1-23.34 121.11-22.34 121.68-21 122.25-19.65 122.25-18.14L122.25-18.14 122.25-18.04 119.25-17.55 119.25-18.31Q119.25-19.21 118.91-20.01 118.57-20.8 117.98-21.39 117.39-21.97 116.6-22.31 115.81-22.66 114.9-22.66L114.9-22.66 113.15-22.66Q112.24-22.66 111.45-22.39 110.66-22.12 110.07-21.62 109.48-21.12 109.14-20.41 108.8-19.7 108.8-18.8L108.8-18.8Q108.8-17.5 109.39-16.69 109.97-15.87 110.94-15.31 111.9-14.75 113.13-14.37 114.37-13.99 115.65-13.59 116.93-13.18 118.16-12.67 119.4-12.16 120.36-11.35 121.33-10.55 121.91-9.34 122.5-8.13 122.5-6.35ZM144.96-6.86L144.96-6.86Q144.96-5.35 144.38-4 143.81-2.66 142.81-1.66 141.81-0.66 140.46-0.09 139.12 0.49 137.61 0.49L137.61 0.49 135.61 0.49Q134.09 0.49 132.75-0.09 131.41-0.66 130.4-1.66 129.4-2.66 128.83-4 128.26-5.35 128.26-6.86L128.26-6.86 128.26-18.14Q128.26-19.65 128.83-21 129.4-22.34 130.4-23.34 131.41-24.34 132.75-24.91 134.09-25.49 135.61-25.49L135.61-25.49 137.61-25.49Q139.12-25.49 140.46-24.91 141.81-24.34 142.81-23.34 143.81-22.34 144.38-21 144.96-19.65 144.96-18.14L144.96-18.14 144.96-6.86ZM141.95-6.69L141.95-18.31Q141.95-19.21 141.61-20.01 141.27-20.8 140.68-21.39 140.1-21.97 139.3-22.31 138.51-22.66 137.61-22.66L137.61-22.66 135.61-22.66Q134.7-22.66 133.91-22.31 133.11-21.97 132.53-21.39 131.94-20.8 131.6-20.01 131.26-19.21 131.26-18.31L131.26-18.31 131.26-6.69Q131.26-5.79 131.6-4.99 131.94-4.2 132.53-3.61 133.11-3.03 133.91-2.69 134.7-2.34 135.61-2.34L135.61-2.34 137.61-2.34Q138.51-2.34 139.3-2.69 140.1-3.03 140.68-3.61 141.27-4.2 141.61-4.99 141.95-5.79 141.95-6.69L141.95-6.69ZM167.66 0L166.66 0 165-2.54Q163.97-1.15 162.43-0.33 160.9 0.49 159.06 0.49L159.06 0.49 158.31 0.49Q156.79 0.49 155.45-0.09 154.11-0.66 153.11-1.66 152.11-2.66 151.53-4 150.96-5.35 150.96-6.86L150.96-6.86 150.96-25 153.96-25 153.96-6.69Q153.96-5.79 154.3-4.99 154.65-4.2 155.23-3.61 155.82-3.03 156.61-2.69 157.4-2.34 158.31-2.34L158.31-2.34 160.31-2.34Q161.21-2.34 162.01-2.69 162.8-3.03 163.39-3.61 163.97-4.2 164.31-4.99 164.66-5.79 164.66-6.69L164.66-6.69 164.66-25 167.66-25 167.66 0ZM184.01-22.14L181.01-22.14Q180.11-22.14 179.31-21.8 178.52-21.46 177.93-20.87 177.35-20.29 177.01-19.49 176.66-18.7 176.66-17.8L176.66-17.8 176.66 0 173.66 0 173.66-25 174.66-25 176.3-22.46Q177.32-23.85 178.87-24.67 180.42-25.49 182.26-25.49L182.26-25.49 184.01-25.49 184.01-22.14ZM204.71-6.86L204.71-6.86Q204.71-5.35 204.14-4 203.57-2.66 202.57-1.66 201.56-0.66 200.22-0.09 198.88 0.49 197.37 0.49L197.37 0.49 195.36 0.49Q193.85 0.49 192.51-0.09 191.16-0.66 190.16-1.66 189.16-2.66 188.59-4 188.01-5.35 188.01-6.86L188.01-6.86 188.01-18.14Q188.01-19.65 188.59-21 189.16-22.34 190.16-23.34 191.16-24.34 192.51-24.91 193.85-25.49 195.36-25.49L195.36-25.49 197.37-25.49Q198.88-25.49 200.22-24.91 201.56-24.34 202.57-23.34 203.57-22.34 204.14-21 204.71-19.65 204.71-18.14L204.71-18.14 204.71-17.14 201.71-16.65 201.71-18.31Q201.71-19.21 201.37-20.01 201.03-20.8 200.44-21.39 199.86-21.97 199.06-22.31 198.27-22.66 197.37-22.66L197.37-22.66 195.36-22.66Q194.46-22.66 193.67-22.31 192.87-21.97 192.29-21.39 191.7-20.8 191.36-20.01 191.02-19.21 191.02-18.31L191.02-18.31 191.02-6.69Q191.02-5.79 191.36-4.99 191.7-4.2 192.29-3.61 192.87-3.03 193.67-2.69 194.46-2.34 195.36-2.34L195.36-2.34 197.37-2.34Q198.27-2.34 199.06-2.69 199.86-3.03 200.44-3.61 201.03-4.2 201.37-4.99 201.71-5.79 201.71-6.69L201.71-6.69 201.71-8.35 204.71-7.86 204.71-6.86ZM227.42-6.86L227.42-6.86Q227.42-5.35 226.84-4 226.27-2.66 225.27-1.66 224.27-0.66 222.92-0.09 221.58 0.49 220.07 0.49L220.07 0.49 218.07 0.49Q216.55 0.49 215.21-0.09 213.87-0.66 212.87-1.66 211.86-2.66 211.29-4 210.72-5.35 210.72-6.86L210.72-6.86 210.72-18.14Q210.72-19.65 211.29-21 211.86-22.34 212.87-23.34 213.87-24.34 215.21-24.91 216.55-25.49 218.07-25.49L218.07-25.49 220.07-25.49Q221.58-25.49 222.92-24.91 224.27-24.34 225.27-23.34 226.27-22.34 226.84-21 227.42-19.65 227.42-18.14L227.42-18.14 227.42-12.26 213.72-12.26 213.72-6.69Q213.72-5.79 214.06-4.99 214.4-4.2 214.99-3.61 215.58-3.03 216.37-2.69 217.16-2.34 218.07-2.34L218.07-2.34 220.07-2.34Q220.97-2.34 221.76-2.69 222.56-3.03 223.14-3.61 223.73-4.2 224.07-4.99 224.41-5.79 224.41-6.69L224.41-6.69 224.41-8.35 227.42-7.86 227.42-6.86ZM224.41-14.6L224.41-18.31Q224.41-19.21 224.07-20.01 223.73-20.8 223.14-21.39 222.56-21.97 221.76-22.31 220.97-22.66 220.07-22.66L220.07-22.66 218.07-22.66Q217.16-22.66 216.37-22.31 215.58-21.97 214.99-21.39 214.4-20.8 214.06-20.01 213.72-19.21 213.72-18.31L213.72-18.31 213.72-14.6 224.41-14.6ZM261.37 0L259.05-8.15 247.97-8.15 245.67 0 242.4 0 252.66-35.01 254.32-35.01 264.62 0 261.37 0ZM253.41-27.29L248.82-11.16 258.22-11.16 253.61-27.29 253.51-28.59 253.41-27.29ZM272.26 0L269.11 0 269.11-35.01 272.26-35.01 272.26 0ZM307.46-6.86L307.46-6.86Q307.46-5.35 306.88-4 306.31-2.66 305.31-1.66 304.31-0.66 302.97-0.09 301.62 0.49 300.11 0.49L300.11 0.49 298.11 0.49Q296.59 0.49 295.25-0.09 293.91-0.66 292.91-1.66 291.91-2.66 291.33-4 290.76-5.35 290.76-6.86L290.76-6.86 290.76-18.14Q290.76-19.65 291.33-21 291.91-22.34 292.91-23.34 293.91-24.34 295.25-24.91 296.59-25.49 298.11-25.49L298.11-25.49 300.11-25.49Q301.62-25.49 302.97-24.91 304.31-24.34 305.31-23.34 306.31-22.34 306.88-21 307.46-19.65 307.46-18.14L307.46-18.14 307.46-17.14 304.45-16.65 304.45-18.31Q304.45-19.21 304.11-20.01 303.77-20.8 303.19-21.39 302.6-21.97 301.81-22.31 301.01-22.66 300.11-22.66L300.11-22.66 298.11-22.66Q297.2-22.66 296.41-22.31 295.62-21.97 295.03-21.39 294.44-20.8 294.1-20.01 293.76-19.21 293.76-18.31L293.76-18.31 293.76-6.69Q293.76-5.79 294.1-4.99 294.44-4.2 295.03-3.61 295.62-3.03 296.41-2.69 297.2-2.34 298.11-2.34L298.11-2.34 300.11-2.34Q301.01-2.34 301.81-2.69 302.6-3.03 303.19-3.61 303.77-4.2 304.11-4.99 304.45-5.79 304.45-6.69L304.45-6.69 304.45-8.35 307.46-7.86 307.46-6.86ZM330.16-6.86L330.16-6.86Q330.16-5.35 329.59-4 329.01-2.66 328.01-1.66 327.01-0.66 325.67-0.09 324.33 0.49 322.81 0.49L322.81 0.49 320.81 0.49Q319.3 0.49 317.95-0.09 316.61-0.66 315.61-1.66 314.61-2.66 314.03-4 313.46-5.35 313.46-6.86L313.46-6.86 313.46-18.14Q313.46-19.65 314.03-21 314.61-22.34 315.61-23.34 316.61-24.34 317.95-24.91 319.3-25.49 320.81-25.49L320.81-25.49 322.81-25.49Q324.33-25.49 325.67-24.91 327.01-24.34 328.01-23.34 329.01-22.34 329.59-21 330.16-19.65 330.16-18.14L330.16-18.14 330.16-6.86ZM327.16-6.69L327.16-18.31Q327.16-19.21 326.82-20.01 326.47-20.8 325.89-21.39 325.3-21.97 324.51-22.31 323.71-22.66 322.81-22.66L322.81-22.66 320.81-22.66Q319.91-22.66 319.11-22.31 318.32-21.97 317.73-21.39 317.15-20.8 316.81-20.01 316.46-19.21 316.46-18.31L316.46-18.31 316.46-6.69Q316.46-5.79 316.81-4.99 317.15-4.2 317.73-3.61 318.32-3.03 319.11-2.69 319.91-2.34 320.81-2.34L320.81-2.34 322.81-2.34Q323.71-2.34 324.51-2.69 325.3-3.03 325.89-3.61 326.47-4.2 326.82-4.99 327.16-5.79 327.16-6.69L327.16-6.69ZM365.56 0L362.56 0 362.56-18.31Q362.56-19.21 362.21-20.01 361.87-20.8 361.29-21.39 360.7-21.97 359.91-22.31 359.11-22.66 358.21-22.66L358.21-22.66 356.72-22.66Q355.82-22.66 355.02-22.31 354.23-21.97 353.63-21.39 353.03-20.8 352.69-20.01 352.35-19.21 352.35-18.31L352.35-18.31 352.35 0 349.37 0 349.37-18.31Q349.37-19.21 349.03-20.01 348.69-20.8 348.09-21.39 347.49-21.97 346.7-22.31 345.9-22.66 345-22.66L345-22.66 343.51-22.66Q342.61-22.66 341.82-22.31 341.02-21.97 340.44-21.39 339.85-20.8 339.51-20.01 339.17-19.21 339.17-18.31L339.17-18.31 339.17 0 336.16 0 336.16-25 337.16-25 338.8-22.46Q339.83-23.85 341.38-24.67 342.93-25.49 344.76-25.49L344.76-25.49 345-25.49Q347.13-25.49 348.83-24.44 350.54-23.39 351.47-21.66L351.47-21.66Q351.94-22.51 352.62-23.22 353.3-23.93 354.13-24.43 354.96-24.93 355.94-25.21 356.92-25.49 357.97-25.49L357.97-25.49 358.21-25.49Q359.72-25.49 361.07-24.91 362.41-24.34 363.41-23.34 364.41-22.34 364.98-21 365.56-19.65 365.56-18.14L365.56-18.14 365.56 0ZM400.96 0L397.95 0 397.95-18.31Q397.95-19.21 397.61-20.01 397.27-20.8 396.68-21.39 396.1-21.97 395.3-22.31 394.51-22.66 393.61-22.66L393.61-22.66 392.12-22.66Q391.21-22.66 390.42-22.31 389.63-21.97 389.03-21.39 388.43-20.8 388.09-20.01 387.75-19.21 387.75-18.31L387.75-18.31 387.75 0 384.77 0 384.77-18.31Q384.77-19.21 384.43-20.01 384.09-20.8 383.49-21.39 382.89-21.97 382.1-22.31 381.3-22.66 380.4-22.66L380.4-22.66 378.91-22.66Q378.01-22.66 377.21-22.31 376.42-21.97 375.83-21.39 375.25-20.8 374.91-20.01 374.56-19.21 374.56-18.31L374.56-18.31 374.56 0 371.56 0 371.56-25 372.56-25 374.2-22.46Q375.22-23.85 376.77-24.67 378.32-25.49 380.16-25.49L380.16-25.49 380.4-25.49Q382.52-25.49 384.23-24.44 385.94-23.39 386.87-21.66L386.87-21.66Q387.33-22.51 388.02-23.22 388.7-23.93 389.53-24.43 390.36-24.93 391.34-25.21 392.31-25.49 393.36-25.49L393.36-25.49 393.61-25.49Q395.12-25.49 396.46-24.91 397.81-24.34 398.81-23.34 399.81-22.34 400.38-21 400.96-19.65 400.96-18.14L400.96-18.14 400.96 0ZM423.66 0L422.66 0 421-2.54Q419.97-1.15 418.43-0.33 416.9 0.49 415.06 0.49L415.06 0.49 414.31 0.49Q412.79 0.49 411.45-0.09 410.11-0.66 409.11-1.66 408.11-2.66 407.53-4 406.96-5.35 406.96-6.86L406.96-6.86 406.96-25 409.96-25 409.96-6.69Q409.96-5.79 410.3-4.99 410.65-4.2 411.23-3.61 411.82-3.03 412.61-2.69 413.4-2.34 414.31-2.34L414.31-2.34 416.31-2.34Q417.21-2.34 418.01-2.69 418.8-3.03 419.39-3.61 419.97-4.2 420.31-4.99 420.66-5.79 420.66-6.69L420.66-6.69 420.66-25 423.66-25 423.66 0ZM446.36 0L443.36 0 443.36-18.31Q443.36-19.21 443.02-20.01 442.67-20.8 442.09-21.39 441.5-21.97 440.71-22.31 439.92-22.66 439.01-22.66L439.01-22.66 437.01-22.66Q436.11-22.66 435.31-22.31 434.52-21.97 433.93-21.39 433.35-20.8 433.01-20.01 432.66-19.21 432.66-18.31L432.66-18.31 432.66 0 429.66 0 429.66-25 430.66-25 432.3-22.46Q433.32-23.85 434.87-24.67 436.42-25.49 438.26-25.49L438.26-25.49 439.01-25.49Q440.53-25.49 441.87-24.91 443.21-24.34 444.21-23.34 445.21-22.34 445.79-21 446.36-19.65 446.36-18.14L446.36-18.14 446.36 0ZM456.61-31.01L453.12-31.01 453.12-35.01 456.61-35.01 456.61-31.01ZM456.37 0L453.37 0 453.37-25 456.37-25 456.37 0ZM475.21 0L472.48 0Q471.11 0 469.9-0.51 468.7-1.03 467.8-1.93 466.91-2.83 466.39-4.03 465.86-5.22 465.86-6.59L465.86-6.59 465.86-22.14 461.37-22.14 461.37-25 465.86-25 465.86-31.01 468.87-31.49 468.87-25 475.21-25 475.21-22.14 468.87-22.14 468.87-6.45Q468.87-5.69 469.15-5.04 469.43-4.39 469.92-3.91 470.4-3.42 471.06-3.14 471.72-2.86 472.48-2.86L472.48-2.86 475.21-2.86 475.21 0ZM497.43-25L484.78 10.01 481.88 10.01 486.32-2.15 478.21-25 481.22-25 487.74-6.05 487.83-4.76 487.93-6.05 494.42-25 497.43-25Z" opacity="1" transform="matrix(1,0,0,1,0,0)" fill="#89939e" class="slogan-text-1" data-fill-palette-color="secondary" id="text-1"></path></svg></g></svg></g></svg></g></svg></g><g transform="matrix(1,0,0,1,427.8231620642937,0)"><svg viewBox="0 0 118.35162932715963 127.34785216111948" height="127.34785216111948" width="118.35162932715963"><g><svg xmlns="http://www.w3.org/2000/svg" viewBox="6.939679219969665 7.936 80.89289507593764 87.04177966607372" x="0" y="0" height="127.34785216111948" width="118.35162932715963" class="icon-icon-0" data-fill-palette-color="accent" id="icon-0"><path d="M83.406 39.505H84.276A2.392 2.392 0 1 0 84.276 34.722 2.5 2.5 0 0 0 83.766 34.775 3.075 3.075 0 0 0 79.545 33.64 37.7 37.7 0 0 0 68.896 24.505V22.125H63.336V19.893L72.916 11.84V11.215H66.7V7.936H33.473V11.215H27.245V11.84L36.835 19.893V22.125H31.272V24.507A37.97 37.97 0 0 0 13.564 47.67 4.76 4.76 0 0 0 11.521 49.68 3.646 3.646 0 1 0 10.586 56.85H12.344C12.343 56.977 12.34 57.104 12.34 57.232A37.79 37.79 0 0 0 34.695 91.685V91.695H34.72A37.4 37.4 0 0 0 44.824 94.603V94.62H44.954A37 37 0 0 0 55.22 94.62H55.349V94.603A37.732 37.732 0 0 0 83.406 39.505M81.086 33.929A2.38 2.38 0 0 1 83.26 35.34L83.394 35.64 83.704 35.532A1.683 1.683 0 1 1 84.275 38.795H77.758A1.447 1.447 0 0 1 77.758 35.9 1.4 1.4 0 0 1 78.293 36.006L78.677 36.162 78.77 35.76A2.37 2.37 0 0 1 81.087 33.929M66.7 11.924H71.72L62.867 19.36H59.461L66.498 11.924ZM45.104 19.36H41.64L34.647 11.924H41.68ZM42.46 11.924H49.707V19.36H45.886ZM62.628 20.07V22.125H37.545V20.07ZM54.238 19.361H50.415V11.924H57.663ZM58.443 11.924H65.522L58.485 19.36H55.02ZM62.847 8.646H65.99V11.215H62.847ZM55.349 8.646H62.138V11.215H55.348ZM45.533 8.646H54.64V11.215H45.533ZM37.547 8.646H44.824V11.215H37.547ZM34.182 8.646H36.838V11.215H34.182ZM28.453 11.924H33.673L40.664 19.36H37.306ZM31.98 22.834H68.187V25.404H31.98ZM33.545 84.428H31.979V81.858H68.187V84.428zM65.915 85.137V87.707H63.324V85.137ZM62.615 85.137V87.707H59.336V85.137ZM58.628 85.137V87.707H55.348V85.137ZM54.64 85.137V87.707H50.44V85.137ZM49.73 85.137V87.707H45.533V85.137ZM44.824 85.137V87.707H41.54V85.137ZM40.831 85.137V87.707H37.547V85.137ZM36.838 85.137V87.707H34.254V85.137ZM34.254 81.149V78.58H36.838V81.15ZM37.547 81.15V78.58H40.83V81.15ZM41.54 81.15V78.58H44.824V81.15ZM45.533 81.15V78.58H49.731V81.15ZM50.44 81.15V78.58H54.64V81.15ZM55.35 81.15V78.58H58.628V81.15ZM59.337 81.15V78.58H62.617V81.15ZM63.325 81.15V78.58H65.915V81.15ZM33.545 77.87H31.979V75.3H68.187V77.87zM34.254 74.59V72.02H36.838V74.59ZM37.547 74.59V72.02H40.83V74.59ZM41.54 74.59V72.02H44.824V74.59ZM45.533 74.59V72.02H49.731V74.59ZM50.44 74.59V72.02H54.64V74.59ZM55.35 74.59V72.02H58.628V74.59ZM59.337 74.59V72.02H62.617V74.59ZM63.325 74.59V72.02H65.914V74.59ZM33.545 71.312H31.979V68.742H68.187V71.312zM34.254 68.033V65.463H36.838V68.033ZM37.547 68.033V65.463H40.83V68.033ZM41.54 68.033V65.463H44.824V68.033ZM45.533 68.033V65.463H49.731V68.033ZM50.44 68.033V65.463H54.64V68.033ZM55.35 68.033V65.463H58.628V68.033ZM59.337 68.033V65.463H62.617V68.033ZM63.325 68.033V65.463H65.914V68.033ZM33.545 64.753H31.979V62.184H68.187V64.754zM34.254 61.476V58.905H36.838V61.474ZM37.547 61.475V58.905H40.83V61.474ZM41.54 61.475V58.905H44.824V61.474ZM45.533 61.475V58.905H49.731V61.474ZM50.44 61.475V58.905H54.64V61.474ZM55.35 61.475V58.905H58.628V61.474ZM59.337 61.475V58.905H62.617V61.474ZM63.325 61.475V58.905H65.914V61.474ZM33.545 58.195H31.979V55.625H68.187V58.195zM34.254 54.916V52.346H36.838V54.916ZM37.547 54.916V52.346H40.83V54.916ZM41.54 54.916V52.346H44.824V54.916ZM45.533 54.916V52.346H49.731V54.916ZM50.44 54.916V52.346H54.64V54.916ZM55.35 54.916V52.346H58.628V54.916ZM59.337 54.916V52.346H62.617V54.916ZM63.325 54.916V52.346H65.914V54.916ZM33.545 51.636H31.979V49.068H68.187V51.637zM34.254 48.359V45.788H36.838V48.358ZM37.547 48.358V45.788H40.83V48.358ZM41.54 48.358V45.788H44.824V48.358ZM45.533 48.358V45.788H49.731V48.358ZM50.44 48.358V45.788H54.64V48.358ZM55.35 48.358V45.788H58.628V48.358ZM59.337 48.358V45.788H62.617V48.358ZM63.325 48.358V45.788H65.914V48.358ZM33.545 45.08H31.979V42.51H68.187V45.079zM34.254 41.8V39.23H36.838V41.8ZM37.547 41.8V39.23H40.83V41.8ZM41.54 41.8V39.23H44.824V41.8ZM45.533 41.8V39.23H49.731V41.8ZM50.44 41.8V39.23H54.64V41.8ZM55.35 41.8V39.23H58.628V41.8ZM59.337 41.8V39.23H62.617V41.8ZM63.325 41.8V39.23H65.914V41.8ZM33.545 38.522H31.979V35.95H68.187V38.52zM34.254 35.24V32.671H36.838V35.242ZM37.547 35.241V32.671H40.83V35.242ZM41.54 35.241V32.671H44.824V35.242ZM45.533 35.241V32.671H49.731V35.242ZM50.44 35.241V32.671H54.64V35.242ZM55.35 35.241V32.671H58.628V35.242ZM59.337 35.241V32.671H62.617V35.242ZM63.325 35.241V32.671H65.914V35.242ZM33.545 31.963H31.979V29.393H68.187V31.963zM34.254 28.683V26.114H36.838V28.683ZM37.547 28.684V26.114H40.83V28.683ZM41.54 28.684V26.114H44.824V28.683ZM45.533 28.684V26.114H49.731V28.683ZM50.44 28.684V26.114H54.64V28.683ZM55.35 28.684V26.114H58.628V28.683ZM59.337 28.684V26.114H62.617V28.683ZM63.325 28.684V26.114H65.914V28.683ZM10.585 56.142A2.936 2.936 0 1 1 11.586 50.44L11.897 50.555 12.031 50.253A4.06 4.06 0 0 1 19.691 50.966L19.785 51.367 20.168 51.214A2.555 2.555 0 1 1 21.118 56.14ZM31.272 89.115A37.05 37.05 0 0 1 13.049 57.232C13.049 57.104 13.052 56.977 13.053 56.85H21.118A3.265 3.265 0 1 0 20.278 50.43 4.754 4.754 0 0 0 14.398 47.33 37.25 37.25 0 0 1 31.271 25.334V26.113H33.545V28.683H31.27V32.673H33.545V35.242H31.27V39.23H33.545V41.8H31.27V45.788H33.545V48.358H31.27V52.346H33.545V54.916H31.27V58.904H33.545V61.474H31.27V65.464H33.545V68.033H31.27V72.021H33.545V74.59H31.27V78.579H33.545V81.15H31.27V85.137H33.545V87.707H31.27ZM40.83 93.1A37 37 0 0 1 36.547 91.695H40.83ZM44.824 93.889A37 37 0 0 1 41.54 93.264V91.695H44.824ZM49.731 94.262A37 37 0 0 1 45.533 93.979V91.695H49.731ZM54.64 93.979A37 37 0 0 1 50.44 94.261V91.695H54.64ZM58.628 93.265A37 37 0 0 1 55.348 93.89V91.695H58.629ZM59.337 93.1V91.695H63.626A37 37 0 0 1 59.336 93.1M68.187 89.527Q66.782 90.318 65.303 90.987H34.872Q33.39 90.314 31.978 89.522V88.416H68.187ZM68.898 89.12V87.707H66.623V85.137H68.896V81.149H66.623V78.58H68.896V74.591H66.623V72.02H68.896V68.033H66.623V65.463H68.896V61.475H66.623V58.905H68.896V54.915H66.623V52.346H68.896V48.358H66.623V45.788H68.896V41.8H66.623V39.23H68.896V35.24H66.623V32.671H68.896V28.685H66.623V26.114H68.896V25.331A37 37 0 0 1 78.971 34.056 3.1 3.1 0 0 0 78.189 35.236 2 2 0 0 0 77.758 35.192 2.156 2.156 0 0 0 77.758 39.505H82.61A37.025 37.025 0 0 1 68.896 89.119" fill="#000000" data-fill-palette-color="accent"></path></svg></g></svg></g></svg></g><defs></defs></svg><rect width="395.52" height="92.22070165202092" fill="none" stroke="none" visibility="hidden"></rect></g></svg></g></svg>